<?xml version="1.0" standalone="no"?>
<!DOCTYPE svg PUBLIC "-//W3C//DTD SVG 20010904//EN"
 "http://www.w3.org/TR/2001/REC-SVG-20010904/DTD/svg10.dtd">
<svg version="1.0" xmlns="http://www.w3.org/2000/svg"
 width="512.000000pt" height="512.000000pt" viewBox="0 0 512.000000 512.000000"
 preserveAspectRatio="xMidYMid meet">

<g transform="translate(0.000000,512.000000) scale(0.100000,-0.100000)"
fill="#000000" stroke="none">
<path d="M2385 5114 c-16 -2 -73 -9 -125 -15 -130 -15 -260 -43 -406 -90 -675
-216 -1163 -725 -1286 -1342 -30 -150 -32 -404 -4 -552 36 -194 124 -416 226
-575 110 -169 275 -345 443 -471 82 -62 87 -68 142 -174 124 -241 279 -434
475 -587 l35 -28 -25 -47 c-32 -60 -127 -157 -205 -208 -32 -21 -149 -80 -260
-130 -269 -124 -325 -153 -436 -226 -177 -118 -427 -398 -444 -499 -8 -46 28
-117 74 -147 l34 -23 1937 0 1937 0 34 23 c46 30 82 101 74 147 -17 101 -267
381 -444 499 -111 74 -168 103 -437 226 -280 128 -399 215 -466 342 l-23 43
35 28 c196 154 355 350 476 588 53 106 57 110 142 173 110 82 300 272 375 376
459 630 413 1432 -114 2009 -311 339 -760 570 -1249 641 -100 15 -452 28 -515
19z m376 -304 c228 -23 442 -83 646 -180 449 -214 746 -563 845 -995 29 -124
31 -372 4 -495 -22 -102 -67 -233 -108 -315 -35 -70 -124 -207 -163 -250 -26
-30 -26 -30 -21 -5 33 147 32 555 -2 700 -44 189 -127 374 -234 525 -78 111
-228 261 -336 338 -393 281 -904 343 -1356 167 -56 -22 -148 -67 -204 -101
l-103 -60 -56 16 c-44 13 -68 29 -114 74 -62 63 -89 125 -89 209 0 60 25 81
196 169 334 170 717 241 1095 203z m-1451 -760 c23 -28 71 -71 105 -96 l63
-45 -68 -90 c-118 -157 -210 -360 -255 -560 -31 -138 -31 -548 1 -689 5 -25 5
-25 -21 5 -15 17 -51 66 -80 110 -176 267 -246 573 -201 875 34 225 151 478
296 643 l42 47 38 -74 c20 -41 56 -98 80 -126z m1090 17 c0 -52 -42 -187 -86
-277 -39 -80 -61 -109 -134 -181 -102 -102 -198 -154 -356 -195 -116 -29 -314
-45 -314 -25 0 25 85 176 141 251 124 166 307 306 494 379 80 32 197 65 248
70 4 1 7 -10 7 -22z m476 -13 c292 -83 548 -295 692 -571 23 -45 42 -87 42
-94 0 -20 -198 -4 -314 25 -158 41 -254 93 -356 195 -74 72 -95 101 -133 181
-44 90 -87 227 -87 276 0 21 4 22 38 17 20 -3 73 -16 118 -29z m-271 -517 c51
-79 172 -201 254 -257 189 -127 451 -200 720 -200 l114 0 -6 -197 c-5 -208
-22 -324 -73 -507 -95 -341 -292 -652 -523 -826 -81 -62 -243 -144 -331 -168
-90 -24 -310 -24 -400 0 -88 24 -250 106 -331 168 -231 175 -427 485 -523 826
-51 183 -68 299 -73 505 l-6 196 159 6 c282 11 490 72 679 200 80 55 201 177
250 254 22 35 42 63 45 63 3 0 23 -28 45 -63z m-230 -2462 c167 -29 369 -14
527 39 l68 22 37 -65 c48 -84 195 -232 292 -296 41 -27 147 -82 235 -123 371
-170 460 -220 571 -317 l40 -35 -1585 0 c-1503 0 -1584 1 -1564 18 157 129
201 155 502 293 128 59 268 129 310 155 99 61 254 217 305 305 l37 65 68 -22
c38 -13 108 -30 157 -39z"/>
<path d="M1815 2866 c-110 -48 -122 -192 -22 -266 75 -55 140 -74 257 -74 116
-1 174 13 253 64 106 67 114 189 16 262 -45 34 -91 34 -162 -1 -80 -39 -124
-39 -202 -1 -65 33 -94 36 -140 16z"/>
<path d="M2825 2866 c-66 -28 -105 -106 -90 -176 9 -39 62 -93 123 -124 178
-90 456 -37 523 101 33 69 15 135 -52 185 -45 34 -91 34 -163 -1 -82 -39 -124
-39 -201 -1 -66 33 -94 36 -140 16z"/>
<path d="M2195 2145 c-75 -26 -114 -103 -94 -180 20 -73 150 -173 281 -216
104 -34 252 -34 357 0 81 27 204 103 245 152 72 85 44 205 -58 244 -58 22
-109 8 -178 -51 -115 -98 -261 -98 -376 0 -29 25 -69 50 -90 56 -45 12 -38 12
-87 -5z"/>
<path d="M78 2689 c-43 -22 -78 -81 -78 -129 0 -74 76 -150 149 -150 77 0 151
74 151 150 0 50 -35 107 -80 130 -49 25 -94 25 -142 -1z"/>
<path d="M4658 2259 c-51 -27 -78 -81 -78 -159 l0 -60 -60 0 c-80 0 -133 -27
-160 -80 -57 -112 20 -220 159 -220 l61 0 0 -60 c0 -78 25 -128 78 -158 49
-27 91 -28 142 -2 53 27 80 80 80 160 l0 60 60 0 c106 0 180 61 180 150 0 89
-74 150 -180 150 l-60 0 0 60 c0 80 -27 133 -80 160 -49 25 -94 25 -142 -1z"/>
<path d="M318 1759 c-51 -27 -78 -81 -78 -159 l0 -60 -60 0 c-80 0 -133 -27
-160 -80 -57 -112 20 -220 159 -220 l61 0 0 -60 c0 -78 25 -128 78 -158 49
-27 91 -28 142 -2 53 27 80 80 80 160 l0 60 60 0 c106 0 180 61 180 150 0 89
-74 150 -180 150 l-60 0 0 60 c0 80 -27 133 -80 160 -49 25 -94 25 -142 -1z"/>
<path d="M4018 1339 c-43 -22 -78 -81 -78 -129 0 -74 76 -150 149 -150 77 0
151 74 151 150 0 50 -35 107 -80 130 -49 25 -94 25 -142 -1z"/>
</g>
</svg>
